<?xml version="1.0" encoding="UTF-8"?>
<!DOCTYPE svg PUBLIC "-//W3C//DTD SVG 1.1//EN" "http://www.w3.org/Graphics/SVG/1.1/DTD/svg11.dtd">
<svg xmlns="http://www.w3.org/2000/svg" version="1.1" width="512px" height="512px" style="shape-rendering:geometricPrecision; text-rendering:geometricPrecision; image-rendering:optimizeQuality; fill-rule:evenodd; clip-rule:evenodd" xmlns:xlink="http://www.w3.org/1999/xlink">
<g><path style="opacity:0.957" fill="#000002" d="M 114.5,-0.5 C 208.5,-0.5 302.5,-0.5 396.5,-0.5C 424.801,6.09062 442.968,23.424 451,51.5C 452.157,119.47 452.657,187.47 452.5,255.5C 452.657,323.53 452.157,391.53 451,459.5C 442.968,487.576 424.801,504.909 396.5,511.5C 302.5,511.5 208.5,511.5 114.5,511.5C 86.1988,504.909 68.0321,487.576 60,459.5C 58.8434,391.53 58.3434,323.53 58.5,255.5C 58.3434,187.47 58.8434,119.47 60,51.5C 68.0321,23.424 86.1988,6.09062 114.5,-0.5 Z M 118.5,20.5 C 209.834,20.3333 301.167,20.5 392.5,21C 414.663,26.1637 427.497,39.997 431,62.5C 431.667,191.167 431.667,319.833 431,448.5C 427.497,471.003 414.663,484.836 392.5,490C 301.167,490.667 209.833,490.667 118.5,490C 96.3367,484.836 83.5034,471.003 80,448.5C 79.3333,319.833 79.3333,191.167 80,62.5C 83.6893,39.9823 96.5226,25.9823 118.5,20.5 Z M 138.5,78.5 C 216.5,78.5 294.5,78.5 372.5,78.5C 372.5,93.5 372.5,108.5 372.5,123.5C 294.5,123.5 216.5,123.5 138.5,123.5C 138.5,108.5 138.5,93.5 138.5,78.5 Z M 138.5,197.5 C 152.5,197.5 166.5,197.5 180.5,197.5C 180.5,211.5 180.5,225.5 180.5,239.5C 166.5,239.5 152.5,239.5 138.5,239.5C 138.5,225.5 138.5,211.5 138.5,197.5 Z M 234.5,197.5 C 248.5,197.5 262.5,197.5 276.5,197.5C 276.5,211.5 276.5,225.5 276.5,239.5C 262.5,239.5 248.5,239.5 234.5,239.5C 234.5,225.5 234.5,211.5 234.5,197.5 Z M 330.5,197.5 C 344.5,197.5 358.5,197.5 372.5,197.5C 372.5,211.5 372.5,225.5 372.5,239.5C 358.5,239.5 344.5,239.5 330.5,239.5C 330.5,225.5 330.5,211.5 330.5,197.5 Z M 138.5,291.5 C 152.5,291.5 166.5,291.5 180.5,291.5C 180.5,305.5 180.5,319.5 180.5,333.5C 166.5,333.5 152.5,333.5 138.5,333.5C 138.5,319.5 138.5,305.5 138.5,291.5 Z M 234.5,291.5 C 248.5,291.5 262.5,291.5 276.5,291.5C 276.5,305.5 276.5,319.5 276.5,333.5C 262.5,333.5 248.5,333.5 234.5,333.5C 234.5,319.5 234.5,305.5 234.5,291.5 Z M 330.5,291.5 C 344.5,291.5 358.5,291.5 372.5,291.5C 372.5,305.5 372.5,319.5 372.5,333.5C 358.5,333.5 344.5,333.5 330.5,333.5C 330.5,319.5 330.5,305.5 330.5,291.5 Z M 138.5,384.5 C 152.5,384.5 166.5,384.5 180.5,384.5C 180.5,398.5 180.5,412.5 180.5,426.5C 166.5,426.5 152.5,426.5 138.5,426.5C 138.5,412.5 138.5,398.5 138.5,384.5 Z M 234.5,384.5 C 248.5,384.5 262.5,384.5 276.5,384.5C 276.5,398.5 276.5,412.5 276.5,426.5C 262.5,426.5 248.5,426.5 234.5,426.5C 234.5,412.5 234.5,398.5 234.5,384.5 Z M 330.5,384.5 C 344.5,384.5 358.5,384.5 372.5,384.5C 372.5,398.5 372.5,412.5 372.5,426.5C 358.5,426.5 344.5,426.5 330.5,426.5C 330.5,412.5 330.5,398.5 330.5,384.5 Z"/></g>
<g><path style="opacity:0.959" fill="#000002" d="M 123.5,57.5 C 211.501,57.3333 299.501,57.5 387.5,58C 390.187,59.8749 392.021,62.3749 393,65.5C 393.961,90.2163 393.628,114.883 392,139.5C 390.457,141.378 388.624,142.878 386.5,144C 299.167,144.667 211.833,144.667 124.5,144C 120.795,142.301 118.628,139.467 118,135.5C 117.333,112.5 117.333,89.5 118,66.5C 118.825,62.8442 120.658,59.8442 123.5,57.5 Z M 138.5,78.5 C 138.5,93.5 138.5,108.5 138.5,123.5C 216.5,123.5 294.5,123.5 372.5,123.5C 372.5,108.5 372.5,93.5 372.5,78.5C 294.5,78.5 216.5,78.5 138.5,78.5 Z"/></g>
<g><path style="opacity:0.949" fill="#000002" d="M 124.5,176.5 C 148.169,176.333 171.836,176.5 195.5,177C 199.521,178.868 201.687,182.035 202,186.5C 202.667,207.833 202.667,229.167 202,250.5C 201.681,253.973 200.181,256.806 197.5,259C 173.254,260.647 148.921,260.98 124.5,260C 122.376,258.878 120.543,257.378 119,255.5C 117.375,232.217 117.041,208.883 118,185.5C 118.833,181.506 120.999,178.506 124.5,176.5 Z M 138.5,197.5 C 138.5,211.5 138.5,225.5 138.5,239.5C 152.5,239.5 166.5,239.5 180.5,239.5C 180.5,225.5 180.5,211.5 180.5,197.5C 166.5,197.5 152.5,197.5 138.5,197.5 Z"/></g>
<g><path style="opacity:0.961" fill="#000002" d="M 219.5,176.5 C 243.502,176.333 267.502,176.5 291.5,177C 294.381,178.251 296.214,180.417 297,183.5C 297.667,206.833 297.667,230.167 297,253.5C 296.167,257 294,259.167 290.5,260C 267.167,260.667 243.833,260.667 220.5,260C 217,259.167 214.833,257 214,253.5C 213.333,230.167 213.333,206.833 214,183.5C 214.967,180.379 216.8,178.046 219.5,176.5 Z M 234.5,197.5 C 234.5,211.5 234.5,225.5 234.5,239.5C 248.5,239.5 262.5,239.5 276.5,239.5C 276.5,225.5 276.5,211.5 276.5,197.5C 262.5,197.5 248.5,197.5 234.5,197.5 Z"/></g>
<g><path style="opacity:0.95" fill="#000002" d="M 315.5,176.5 C 339.169,176.333 362.836,176.5 386.5,177C 388.624,178.122 390.457,179.622 392,181.5C 393.625,204.783 393.959,228.117 393,251.5C 392.768,254.738 391.268,257.238 388.5,259C 364.254,260.647 339.921,260.98 315.5,260C 311.479,258.132 309.313,254.965 309,250.5C 308.333,229.167 308.333,207.833 309,186.5C 309.435,181.945 311.602,178.611 315.5,176.5 Z M 330.5,197.5 C 330.5,211.5 330.5,225.5 330.5,239.5C 344.5,239.5 358.5,239.5 372.5,239.5C 372.5,225.5 372.5,211.5 372.5,197.5C 358.5,197.5 344.5,197.5 330.5,197.5 Z"/></g>
<g><path style="opacity:0.949" fill="#000002" d="M 125.5,270.5 C 148.502,270.333 171.502,270.5 194.5,271C 199.228,272.396 201.728,275.562 202,280.5C 202.667,302.167 202.667,323.833 202,345.5C 201.768,348.738 200.268,351.238 197.5,353C 172.921,354.647 148.254,354.98 123.5,354C 120.813,352.125 118.979,349.625 118,346.5C 117.333,324.167 117.333,301.833 118,279.5C 118.951,275.061 121.451,272.061 125.5,270.5 Z M 138.5,291.5 C 138.5,305.5 138.5,319.5 138.5,333.5C 152.5,333.5 166.5,333.5 180.5,333.5C 180.5,319.5 180.5,305.5 180.5,291.5C 166.5,291.5 152.5,291.5 138.5,291.5 Z"/></g>
<g><path style="opacity:0.961" fill="#000002" d="M 221.5,270.5 C 244.169,270.333 266.836,270.5 289.5,271C 293.112,271.889 295.612,274.055 297,277.5C 297.667,301.167 297.667,324.833 297,348.5C 295.954,350.09 294.787,351.59 293.5,353C 268.921,354.647 244.254,354.98 219.5,354C 217,352.833 215.167,351 214,348.5C 213.333,324.833 213.333,301.167 214,277.5C 215.632,274.123 218.132,271.79 221.5,270.5 Z M 234.5,291.5 C 234.5,305.5 234.5,319.5 234.5,333.5C 248.5,333.5 262.5,333.5 276.5,333.5C 276.5,319.5 276.5,305.5 276.5,291.5C 262.5,291.5 248.5,291.5 234.5,291.5 Z"/></g>
<g><path style="opacity:0.949" fill="#000002" d="M 316.5,270.5 C 339.502,270.333 362.502,270.5 385.5,271C 389.742,272.245 392.242,275.078 393,279.5C 393.667,301.833 393.667,324.167 393,346.5C 392.021,349.625 390.187,352.125 387.5,354C 363.5,354.667 339.5,354.667 315.5,354C 313.376,352.878 311.543,351.378 310,349.5C 308.375,326.55 308.042,303.55 309,280.5C 309.471,275.542 311.971,272.209 316.5,270.5 Z M 330.5,291.5 C 330.5,305.5 330.5,319.5 330.5,333.5C 344.5,333.5 358.5,333.5 372.5,333.5C 372.5,319.5 372.5,305.5 372.5,291.5C 358.5,291.5 344.5,291.5 330.5,291.5 Z"/></g>
<g><path style="opacity:0.949" fill="#000002" d="M 124.5,363.5 C 148.169,363.333 171.836,363.5 195.5,364C 199.521,365.868 201.687,369.035 202,373.5C 202.667,394.833 202.667,416.167 202,437.5C 201.681,440.973 200.181,443.806 197.5,446C 173.254,447.647 148.921,447.98 124.5,447C 122.376,445.878 120.543,444.378 119,442.5C 117.375,419.217 117.041,395.883 118,372.5C 118.833,368.506 120.999,365.506 124.5,363.5 Z M 138.5,384.5 C 138.5,398.5 138.5,412.5 138.5,426.5C 152.5,426.5 166.5,426.5 180.5,426.5C 180.5,412.5 180.5,398.5 180.5,384.5C 166.5,384.5 152.5,384.5 138.5,384.5 Z"/></g>
<g><path style="opacity:0.961" fill="#000002" d="M 220.5,363.5 C 243.836,363.333 267.169,363.5 290.5,364C 294,364.833 296.167,367 297,370.5C 297.667,393.833 297.667,417.167 297,440.5C 296.214,443.583 294.381,445.749 291.5,447C 267.5,447.667 243.5,447.667 219.5,447C 216.619,445.749 214.786,443.583 214,440.5C 213.333,417.167 213.333,393.833 214,370.5C 215.018,366.985 217.185,364.652 220.5,363.5 Z M 234.5,384.5 C 234.5,398.5 234.5,412.5 234.5,426.5C 248.5,426.5 262.5,426.5 276.5,426.5C 276.5,412.5 276.5,398.5 276.5,384.5C 262.5,384.5 248.5,384.5 234.5,384.5 Z"/></g>
<g><path style="opacity:0.95" fill="#000002" d="M 315.5,363.5 C 339.169,363.333 362.836,363.5 386.5,364C 388.624,365.122 390.457,366.622 392,368.5C 393.625,391.783 393.959,415.117 393,438.5C 392.768,441.738 391.268,444.238 388.5,446C 364.254,447.647 339.921,447.98 315.5,447C 311.479,445.132 309.313,441.965 309,437.5C 308.333,416.167 308.333,394.833 309,373.5C 309.435,368.945 311.602,365.611 315.5,363.5 Z M 330.5,384.5 C 330.5,398.5 330.5,412.5 330.5,426.5C 344.5,426.5 358.5,426.5 372.5,426.5C 372.5,412.5 372.5,398.5 372.5,384.5C 358.5,384.5 344.5,384.5 330.5,384.5 Z"/></g>
</svg>
